PathFileType	4	(X/Y/Z)	Run_300 02
DataRate	CameraRate	NumFrames	NumMarkers	Units	OrigDataRate	OrigDataStartFrame	OrigNumFrames
100	100	6	42	mm	100	242	128
Frame#	Time	RASI			LPSI			RPSI			RTH1			RTH2			RTH3			LTH1			LTH2			LTH3			RTB1			RTB2			RTB3			LTB1			LTB2			LTB3			RCAL			RTOE			RMT5			LCAL			LTOE			LMT5			LACR			RACR			CLAV			C7			RUA1			RUA2			RUA3			RLEL			RMEL			LUA1			LUA2			LUA3			LLEL			LMEL			RFAsuperior			RFAradius			RFAulna			LFAsuperior			LFAradius			LFAulna			LASI		
		X1	Y1	Z1	X2	Y2	Z2	X3	Y3	Z3	X4	Y4	Z4	X5	Y5	Z5	X6	Y6	Z6	X7	Y7	Z7	X8	Y8	Z8	X9	Y9	Z9	X10	Y10	Z10	X11	Y11	Z11	X12	Y12	Z12	X13	Y13	Z13	X14	Y14	Z14	X15	Y15	Z15	X16	Y16	Z16	X17	Y17	Z17	X18	Y18	Z18	X19	Y19	Z19	X20	Y20	Z20	X21	Y21	Z21	X22	Y22	Z22	X23	Y23	Z23	X24	Y24	Z24	X25	Y25	Z25	X26	Y26	Z26	X27	Y27	Z27	X28	Y28	Z28	X29	Y29	Z29	X30	Y30	Z30	X31	Y31	Z31	X32	Y32	Z32	X33	Y33	Z33	X34	Y34	Z34	X35	Y35	Z35	X36	Y36	Z36	X37	Y37	Z37	X38	Y38	Z38	X39	Y39	Z39	X40	Y40	Z40	X41	Y41	Z41	X42	Y42	Z42	

242	  2.420000	978.695194	1005.099301	-222.381054	808.607594	1073.496562	-395.963368	813.967979	1064.096158	-282.853190	909.543152	884.003461	-179.964918	878.808871	735.715727	-189.338210	946.415737	590.081518	-189.791790	916.654796	890.840376	-525.247956	888.673592	728.453354	-469.152721	974.396894	611.597821	-464.654156	862.196204	402.175328	-248.743272	797.402604	468.645137	-179.686044	671.775294	388.013599	-253.047029	1036.360168	395.136259	-380.619728	926.279523	309.666492	-426.363103	939.888979	198.483381	-355.682258	523.848106	478.567276	-247.694630	548.699759	238.210434	-273.347416	514.046464	277.605575	-180.776047	772.727247	101.798766	-324.595529	1009.798593	 71.965648	-317.430111	958.451037	 38.519255	-414.695569	942.301568	1486.041702	-520.098684	989.401463	1478.019160	-194.717514	1034.414978	1444.830166	-330.651551	910.090562	1515.694696	-356.365172	877.131908	1391.409358	-123.916103	915.726827	1328.288366	-96.354993	842.482889	1261.632419	-50.308710	804.819918	1210.774016	-19.028269	791.081131	1182.031396	-102.290071	834.465030	1392.289735	-559.556407	851.479252	1310.473547	-582.367149	770.433601	1252.580009	-594.930338	741.920308	1190.533753	-610.207699	739.606594	1174.409139	-521.349789	880.057460	1126.743927	-19.077159	1002.837277	1027.424500	-114.312748	971.904649	1001.289115	-58.744341	797.198811	1124.505144	-612.151371	975.159609	1092.910760	-546.827503	950.330815	1032.162953	-574.328716	964.700001	1007.100572	-458.764584	
243	  2.430000	976.111092	1004.109678	-221.164264	807.874854	1073.602122	-396.598246	811.903807	1063.510336	-283.662274	908.838328	883.026267	-178.677067	885.527801	734.463583	-188.226307	961.537537	592.182054	-188.944603	915.948356	889.850417	-524.341315	880.920442	728.215938	-468.812253	962.804223	608.119779	-463.191151	883.812266	403.491642	-248.655581	818.037021	466.985424	-178.430686	692.916397	385.601839	-251.551637	1016.793664	389.535217	-378.531528	904.448557	307.587760	-424.786034	913.672952	196.127757	-354.407074	541.571590	471.787993	-244.602500	576.482816	232.485123	-268.854564	543.001418	271.512486	-175.223103	742.976365	102.806219	-324.437686	979.827287	 71.533739	-317.167802	928.448256	 39.358672	-415.637020	943.661736	1484.486203	-520.320380	986.588928	1476.347215	-194.049897	1033.169107	1443.302781	-329.302937	908.757697	1514.330863	-356.487936	871.723809	1391.054524	-125.247157	908.860687	1328.140341	-96.514582	832.597784	1263.481173	-52.168313	793.656045	1213.146390	-21.148262	781.455378	1183.940223	-104.437262	838.008591	1386.608402	-558.903637	859.143680	1305.889028	-583.932184	781.246044	1244.590601	-598.879510	756.115550	1181.671444	-615.398080	751.264098	1165.109017	-526.594159	865.971896	1126.127998	-17.328233	986.321067	1017.974925	-107.412526	952.946084	995.412025	-51.353583	813.054633	1117.163297	-616.147057	988.498200	1085.321430	-545.028992	965.851871	1024.147882	-573.273046	963.898889	1006.453360	-458.339836	
244	  2.440000	973.566725	1003.843322	-220.736720	807.531665	1075.225998	-397.316951	810.215990	1064.291923	-284.419532	909.783803	883.721970	-176.709771	892.282419	735.282712	-187.231257	976.569548	596.631903	-188.460163	914.875967	889.947249	-523.820689	872.551540	729.286454	-469.436352	949.755634	606.017290	-462.033785	905.035572	406.190848	-249.119623	838.338436	466.563833	-177.724579	714.799349	382.444125	-250.139523	995.479161	385.722903	-376.839813	880.871786	307.206928	-423.580896	886.900306	195.137738	-353.794282	559.199298	462.748418	-241.647090	606.461198	225.476084	-264.893664	572.961324	263.646668	-170.658937	713.326370	104.062104	-324.079602	950.009275	 71.395444	-317.249876	898.260746	 39.711415	-415.737086	945.775834	1484.831584	-520.369377	983.557374	1476.426897	-193.361100	1031.815757	1443.591363	-327.938318	907.638642	1514.758988	-356.992524	865.934995	1392.889844	-126.538053	901.535703	1330.151311	-96.419970	822.654050	1267.706568	-53.719686	782.209196	1218.280445	-22.865857	771.595588	1188.641559	-106.150379	841.786917	1384.023834	-559.421217	866.324976	1304.364033	-585.453607	791.087941	1240.454086	-601.694873	768.857083	1176.854451	-619.426706	761.572773	1159.911683	-530.589942	851.046572	1128.408332	-15.789580	969.733091	1014.078693	-101.788703	934.200672	993.863411	-45.899479	827.795392	1114.007705	-618.912990	1001.431156	1084.424712	-542.804288	980.998825	1022.821809	-571.889342	963.488618	1007.325589	-458.000983	
245	  2.450000	971.187858	1004.890159	-220.707515	807.830019	1077.839506	-398.089172	809.039619	1066.550334	-285.017278	912.268847	886.430253	-174.849372	898.792114	738.145927	-186.896363	990.768357	603.362287	-188.476335	913.325210	890.763618	-523.222642	863.609831	731.268953	-470.692418	935.254039	605.125011	-461.115885	925.603581	410.333757	-249.952963	857.843123	467.673791	-177.337407	738.070033	378.399042	-248.704274	972.425820	383.115163	-375.605952	855.891251	307.465397	-422.679786	859.491146	194.926029	-353.443822	576.834010	451.460978	-238.916447	638.425130	217.476963	-261.473004	603.705043	254.134416	-167.045946	683.733482	105.587308	-323.704819	920.269839	 71.275462	-317.511763	868.012271	 39.847601	-415.614432	948.440491	1486.987815	-520.189372	980.079514	1478.539394	-192.522532	1030.434949	1445.751289	-326.467036	906.879424	1516.861955	-357.651090	859.779523	1396.934927	-127.821980	893.646326	1334.442765	-96.021873	812.500981	1274.263025	-54.829680	770.354015	1225.939909	-24.312752	761.360610	1195.888834	-107.593149	846.506123	1384.430380	-561.509518	872.971955	1305.431241	-586.728701	799.347801	1239.996995	-603.609706	779.467331	1175.737298	-622.442549	769.804263	1158.448023	-533.549728	835.823600	1133.740061	-14.731437	954.092326	1016.175728	-97.505100	916.402361	996.923398	-42.673675	840.497412	1114.453541	-620.393935	1013.229957	1090.612447	-540.362277	994.816409	1028.641435	-570.315072	963.722079	1009.190069	-457.718693	
246	  2.460000	969.367363	1007.829017	-220.337456	808.882264	1081.185680	-399.011394	808.393742	1070.313806	-285.611284	915.093379	891.101557	-173.691368	904.916910	742.839759	-187.434868	1003.528581	612.048389	-189.039979	911.534363	892.173343	-522.252202	854.135506	734.272836	-472.010425	919.516416	605.431396	-460.262558	945.696738	415.680491	-250.782195	876.202527	470.089866	-177.269563	762.734044	373.687578	-247.422280	947.937919	381.587205	-374.653931	830.074351	308.117919	-422.023893	831.626843	195.451477	-353.147778	594.621688	438.044082	-236.586881	672.147921	208.775806	-258.935088	635.343148	243.225785	-164.363364	654.239572	107.864275	-323.769578	890.436692	 71.138282	-317.731737	837.789218	 40.133010	-415.775236	951.352691	1490.817586	-519.732951	976.083969	1482.643985	-191.476054	1029.096370	1449.591136	-324.711788	906.313125	1520.249760	-358.147383	853.293183	1403.049339	-129.215010	885.225028	1340.927370	-95.408976	802.050843	1282.950811	-55.673603	758.096303	1235.716465	-25.780536	750.724467	1205.251081	-109.075624	851.874021	1387.516642	-564.294790	879.081414	1308.725131	-587.611210	806.196800	1242.543771	-605.138840	788.266305	1177.607819	-624.733276	776.409088	1159.914804	-535.815336	821.184975	1142.228811	-14.453231	940.128727	1023.648027	-94.394963	900.144068	1004.229616	-41.418946	851.470337	1118.188996	-620.906144	1023.605000	1102.831189	-537.720233	1007.322772	1040.409419	-568.308347	964.709744	1011.787741	-457.587009	
247	  2.470000	968.420224	1012.650887	-219.522950	810.600161	1085.270325	-400.146550	808.305241	1075.393846	-286.436035	917.245549	897.342751	-173.259302	910.621906	749.032660	-188.618231	1014.585678	622.213545	-189.997381	909.930558	894.216916	-521.016183	844.383143	738.617208	-472.840656	903.068930	607.146766	-459.280853	965.494375	421.705989	-251.225169	893.291024	473.209587	-177.617714	787.738534	368.744994	-246.524722	922.659084	381.603857	-373.878808	803.925708	309.895151	-421.642723	803.859004	197.222488	-353.139022	612.780978	422.668975	-234.892100	707.380097	199.656337	-257.547711	668.060570	231.385200	-162.601771	625.151199	111.734327	-324.694105	860.497849	 71.006728	-317.774604	807.533849	 40.536560	-415.986742	954.188099	1496.137591	-518.934247	971.683549	1488.401318	-190.261726	1027.783630	1454.841516	-322.563119	905.742852	1524.660844	-358.318458	846.572951	1410.944050	-130.828056	876.480594	1349.271301	-94.754413	791.449965	1293.351363	-56.586625	745.702004	1247.174071	-27.503476	739.910104	1216.279583	-110.804028	856.990814	1392.650571	-566.500095	884.666344	1313.914388	-588.100801	812.368568	1247.163997	-606.718441	796.016491	1181.721928	-626.537158	782.387461	1163.591735	-537.643502	807.682959	1153.488774	-15.082685	927.936017	1035.113610	-92.237390	885.669878	1014.865908	-41.526974	861.523327	1125.020877	-620.880591	1032.593190	1119.261911	-534.862868	1019.093413	1056.082580	-565.459622	966.361631	1015.121891	-457.666352	
